<svg xmlns="http://www.w3.org/2000/svg" height="20" width="20"><path d="M9.229 12.312q0-1.229.323-1.979t1.344-1.625q.833-.75 1.114-1.25.282-.5.282-1.104 0-.916-.657-1.521-.656-.604-1.677-.604-.791 0-1.416.406-.625.407-.959 1.282l-1.375-.584q.5-1.229 1.511-1.885 1.01-.656 2.239-.656 1.688 0 2.761.989 1.073.99 1.073 2.531 0 .813-.365 1.542-.365.729-1.26 1.542-.917.812-1.157 1.344-.239.531-.26 1.572Zm.729 4.271q-.458 0-.77-.312-.313-.313-.313-.771t.313-.771q.312-.312.77-.312.438 0 .761.312.323.313.323.771t-.323.771q-.323.312-.761.312Z"/></svg>